<svg width="14" height="14" viewBox="0 0 14 14" fill="none" xmlns="http://www.w3.org/2000/svg">
<path d="M10.5175 2.6192L10.8711 2.26565V2.26565L10.5175 2.6192ZM7.0175 1.1667L7.01971 0.666702L7.01856 0.6667L7.0175 1.1667ZM11.9583 6.1017L11.4583 6.09946V6.1017H11.9583ZM11.9583 6.13087L12.4583 6.14077V6.13087H11.9583ZM9.695 10.7975L10.0529 11.1467L10.0534 11.1461L9.695 10.7975ZM7.37333 12.6875L7.10546 12.2653L7.07652 12.2837L7.05036 12.3058L7.37333 12.6875ZM6.58583 12.6875L6.9088 12.3058L6.8849 12.2856L6.85867 12.2685L6.58583 12.6875ZM3.325 9.64837L3.72477 9.34805L3.72338 9.34622L3.325 9.64837ZM2.04166 6.06087L1.54167 6.05871L1.54163 6.06876L1.54199 6.07879L2.04166 6.06087ZM8.12036 7.2924L8.47033 7.6495L8.47047 7.64936L8.12036 7.2924ZM7.00036 7.73573L6.99361 8.23573H7.00036V7.73573ZM10.8711 2.26565C9.85556 1.25016 8.46904 0.673117 7.01971 0.666704L7.01528 1.66669C8.20262 1.67195 9.3361 2.1449 10.1639 2.97275L10.8711 2.26565ZM12.4583 6.10394C12.4648 4.66837 11.8919 3.2865 10.8711 2.26565L10.1639 2.97275C10.9981 3.8069 11.4636 4.93336 11.4583 6.09946L12.4583 6.10394ZM12.4583 6.13087V6.1017H11.4583V6.13087H12.4583ZM10.0534 11.1461C11.3335 9.82981 12.4197 8.0874 12.4582 6.14076L11.4584 6.12097C11.427 7.70933 10.5298 9.22192 9.33655 10.4489L10.0534 11.1461ZM7.6412 13.1097C8.52119 12.5514 9.32701 11.8907 10.0529 11.1467L9.33711 10.4484C8.66299 11.1393 7.91714 11.7503 7.10546 12.2653L7.6412 13.1097ZM6.26286 13.0692C6.67678 13.4195 7.28238 13.4195 7.6963 13.0692L7.05036 12.3058C7.00928 12.3406 6.94988 12.3406 6.9088 12.3058L6.26286 13.0692ZM2.92523 9.94868C3.85959 11.1925 5.01129 12.2589 6.31299 13.1065L6.85867 12.2685C5.65204 11.4828 4.58707 10.4959 3.72476 9.34805L2.92523 9.94868ZM1.54199 6.07879C1.59239 7.48369 2.07759 8.83105 2.92661 9.95051L3.72338 9.34622C2.99741 8.38901 2.58428 7.23971 2.54134 6.04294L1.54199 6.07879ZM7.01856 0.6667C4.01207 0.660289 1.55454 3.06547 1.54167 6.05871L2.54166 6.06302C2.55212 3.63126 4.55126 1.66144 7.01643 1.6667L7.01856 0.6667ZM7.7704 6.93529C7.57549 7.12629 7.30587 7.23573 7.01786 7.23573V8.23573C7.55819 8.23573 8.0819 8.03016 8.47033 7.6495L7.7704 6.93529ZM8.09345 6.18406C8.09345 6.46003 7.98097 6.72876 7.77026 6.93543L8.47047 7.64936C8.86642 7.26103 9.09345 6.7376 9.09345 6.18406H8.09345ZM7.01786 5.12656C7.61722 5.12656 8.09345 5.60316 8.09345 6.18406H9.09345C9.09345 5.0383 8.15684 4.12656 7.01786 4.12656V5.12656ZM5.9487 6.18406C5.9487 5.60051 6.42118 5.12656 7.01786 5.12656V4.12656C5.87621 4.12656 4.9487 5.04094 4.9487 6.18406H5.9487ZM7.00712 7.23577C6.4108 7.22772 5.9487 6.75638 5.9487 6.18406H4.9487C4.9487 7.31625 5.86326 8.22041 6.99361 8.23568L7.00712 7.23577ZM7.01786 7.23573H7.00036V8.23573H7.01786V7.23573Z" fill="#FAFAFB"/>
</svg>
