<svg width="21" height="20" viewBox="0 0 21 20" fill="none" xmlns="http://www.w3.org/2000/svg">
<path d="M18.5 9.59957H7.8146M4.04292 9.59957H2.5M4.04292 9.59957C4.04292 9.09953 4.24156 8.61997 4.59514 8.26638C4.94872 7.9128 5.42828 7.71416 5.92832 7.71416C6.42837 7.71416 6.90793 7.9128 7.26151 8.26638C7.61509 8.61997 7.81373 9.09953 7.81373 9.59957C7.81373 10.0996 7.61509 10.5792 7.26151 10.9328C6.90793 11.2863 6.42837 11.485 5.92832 11.485C5.42828 11.485 4.94872 11.2863 4.59514 10.9328C4.24156 10.5792 4.04292 10.0996 4.04292 9.59957ZM18.5 15.3137H13.5288M13.5288 15.3137C13.5288 15.8139 13.3296 16.294 12.976 16.6477C12.6223 17.0013 12.1426 17.2 11.6425 17.2C11.1424 17.2 10.6629 17.0005 10.3093 16.6469C9.95572 16.2933 9.75708 15.8138 9.75708 15.3137M13.5288 15.3137C13.5288 14.8136 13.3296 14.3343 12.976 13.9807C12.6223 13.627 12.1426 13.4283 11.6425 13.4283C11.1424 13.4283 10.6629 13.627 10.3093 13.9805C9.95572 14.3341 9.75708 14.8137 9.75708 15.3137M9.75708 15.3137H2.5M18.5 3.88541H15.8146M12.0429 3.88541H2.5M12.0429 3.88541C12.0429 3.38536 12.2416 2.9058 12.5951 2.55222C12.9487 2.19864 13.4283 2 13.9283 2C14.1759 2 14.4211 2.04877 14.6498 2.14352C14.8786 2.23827 15.0864 2.37715 15.2615 2.55222C15.4366 2.7273 15.5755 2.93514 15.6702 3.16389C15.765 3.39264 15.8137 3.63781 15.8137 3.88541C15.8137 4.133 15.765 4.37817 15.6702 4.60692C15.5755 4.83567 15.4366 5.04351 15.2615 5.21859C15.0864 5.39366 14.8786 5.53254 14.6498 5.62729C14.4211 5.72204 14.1759 5.77081 13.9283 5.77081C13.4283 5.77081 12.9487 5.57217 12.5951 5.21859C12.2416 4.86501 12.0429 4.38545 12.0429 3.88541Z" stroke="#FAFAFB" stroke-miterlimit="10" stroke-linecap="round"/>
</svg>
