<svg width="18" height="18" viewBox="0 0 18 18" fill="none" xmlns="http://www.w3.org/2000/svg">
<path d="M15.1587 10.6445C14.3829 10.6526 13.8447 11.0261 13.5018 11.4482C13.1652 11.0207 12.6261 10.6445 11.8305 10.6445C11.3049 10.6445 10.8684 10.8146 10.5336 11.1512C9.92068 11.7668 9.90808 12.6938 9.91438 12.7226C9.89908 12.8162 9.58228 15.0428 13.3029 16.8968C13.3659 16.9283 13.4352 16.9445 13.5036 16.9445C13.5765 16.9445 13.6485 16.9265 13.7142 16.8914C15.9642 15.6971 17.1342 14.2508 17.0982 12.6758C17.0991 11.8595 16.5888 10.6445 15.1587 10.6445ZM13.4973 15.986C10.6353 14.4839 10.7955 12.926 10.809 12.7937C10.8081 12.6281 10.8729 12.0872 11.1726 11.7866C11.3346 11.6237 11.5497 11.5445 11.8314 11.5445C12.7845 11.5445 13.0293 12.4148 13.0527 12.5111C13.0995 12.7109 13.2759 12.8522 13.4811 12.8567C13.6782 12.8351 13.869 12.7253 13.9248 12.5282C13.9365 12.4886 14.2119 11.5544 15.1839 11.5445C16.1883 11.5445 16.1991 12.6299 16.2 12.7289C16.2252 13.8494 15.2676 15.0005 13.4973 15.986ZM13.5009 5.65313C13.5009 2.92433 11.2806 0.703125 8.55088 0.703125C5.82118 0.703125 3.60088 2.92343 3.60088 5.65313C3.60088 7.58003 4.70968 9.24953 6.32068 10.0667C3.35248 11.018 0.900879 13.7135 0.900879 16.4531C0.900879 16.7015 1.10248 16.9031 1.35088 16.9031C1.59928 16.9031 1.80088 16.7015 1.80088 16.4531C1.80088 13.5551 5.20738 10.6031 8.55088 10.6031C11.2797 10.6031 13.5009 8.38283 13.5009 5.65313ZM8.55088 9.70313C6.31798 9.70313 4.50088 7.88603 4.50088 5.65313C4.50088 3.42023 6.31798 1.60313 8.55088 1.60313C10.7838 1.60313 12.6009 3.42023 12.6009 5.65313C12.6009 7.88603 10.7838 9.70313 8.55088 9.70313Z" fill="white"/>
</svg>
