<svg width="20" height="20" viewBox="0 0 20 20" fill="none" xmlns="http://www.w3.org/2000/svg">
<path d="M15.8368 10.6725L10.0065 16.4469L4.17617 10.6725C3.7916 10.2983 3.48869 9.84852 3.2865 9.35148C3.08431 8.85445 2.98722 8.32093 3.00135 7.78453C3.01548 7.24812 3.14052 6.72046 3.3686 6.23475C3.59667 5.74905 3.92285 5.31583 4.32658 4.96238C4.73031 4.60893 5.20285 4.3429 5.71444 4.18104C6.22604 4.01919 6.76561 3.96501 7.29917 4.02193C7.83273 4.07885 8.34873 4.24562 8.81466 4.51176C9.2806 4.77789 9.68639 5.13762 10.0065 5.56828C10.3279 5.14074 10.7342 4.78416 11.1998 4.52085C11.6654 4.25754 12.1804 4.09317 12.7125 4.03803C13.2445 3.9829 13.7823 4.03817 14.292 4.20041C14.8017 4.36264 15.2724 4.62834 15.6747 4.98087C16.0771 5.3334 16.4023 5.76518 16.63 6.24918C16.8578 6.73318 16.9832 7.25898 16.9984 7.79368C17.0136 8.32838 16.9183 8.86046 16.7184 9.35662C16.5186 9.85279 16.2184 10.3024 15.8368 10.6772" stroke="#FAFAFB" stroke-linecap="round" stroke-linejoin="round"/>
</svg>
