<svg width="14" height="14" viewBox="0 0 14 14" fill="none" xmlns="http://www.w3.org/2000/svg">
<path fill-rule="evenodd" clip-rule="evenodd" d="M2.7125 9.90936C2.75325 9.85644 2.8061 9.81349 2.86684 9.78391C2.92759 9.75432 2.99458 9.73892 3.0625 9.73892H5.25C5.36603 9.73892 5.47731 9.78381 5.55936 9.86373C5.64141 9.94364 5.6875 10.052 5.6875 10.165C5.6875 10.278 5.64141 10.3864 5.55936 10.4663C5.47731 10.5462 5.36603 10.5911 5.25 10.5911H3.28125L1.3125 13.1478H12.6875L10.7188 10.5911H8.75C8.63397 10.5911 8.52269 10.5462 8.44064 10.4663C8.35859 10.3864 8.3125 10.278 8.3125 10.165C8.3125 10.052 8.35859 9.94364 8.44064 9.86373C8.52269 9.78381 8.63397 9.73892 8.75 9.73892H10.9375C11.0054 9.73892 11.0724 9.75432 11.1332 9.78391C11.1939 9.81349 11.2467 9.85644 11.2875 9.90936L13.9125 13.3182C13.9612 13.3815 13.9909 13.4568 13.9982 13.5356C14.0055 13.6144 13.9901 13.6936 13.9538 13.7644C13.9175 13.8352 13.8616 13.8947 13.7925 13.9363C13.7234 13.9779 13.6437 14 13.5625 14H0.4375C0.356251 14 0.276607 13.9779 0.207493 13.9363C0.138378 13.8947 0.082524 13.8352 0.0461883 13.7644C0.00985267 13.6936 -0.00552861 13.6144 0.00176801 13.5356C0.00906462 13.4568 0.0387508 13.3815 0.0875002 13.3182L2.7125 9.90936Z" fill="#FAFAFB"/>
<path fill-rule="evenodd" clip-rule="evenodd" d="M3.33202 3.27157C3.33209 2.64192 3.53113 2.02566 3.90526 1.49674C4.27939 0.967813 4.81273 0.548695 5.44126 0.289672C6.0698 0.03065 6.76684 -0.0572729 7.44875 0.0364536C8.13066 0.13018 8.76846 0.401575 9.28563 0.818072C9.8028 1.23457 10.1774 1.77848 10.3644 2.38453C10.5514 2.99058 10.5429 3.63304 10.34 4.2348C10.137 4.83657 9.74824 5.37208 9.22023 5.77709C8.69223 6.18209 8.04745 6.43939 7.36327 6.51809V11.0423C7.36327 11.1508 7.31608 11.2548 7.23208 11.3315C7.14808 11.4082 7.03415 11.4513 6.91535 11.4513C6.79656 11.4513 6.68263 11.4082 6.59863 11.3315C6.51463 11.2548 6.46744 11.1508 6.46744 11.0423V6.51891C5.60114 6.41925 4.80449 6.03421 4.22715 5.43611C3.64981 4.83801 3.3315 4.06801 3.33202 3.27076V3.27157Z" fill="#FAFAFB"/>
</svg>
