<svg width="9" height="9" viewBox="0 0 9 9" fill="none" xmlns="http://www.w3.org/2000/svg">
<path d="M3.86652 4.44082C3.83698 4.46564 3.80158 4.49958 3.78001 4.51747C3.54067 4.71656 3.29347 4.90433 3.03842 5.08079C2.98996 5.11427 2.93752 5.1459 2.88541 5.17603C2.88165 5.17818 2.88117 5.18095 2.88397 5.18434C3.38006 5.77491 4.0171 6.26181 4.64551 6.68742C5.04903 6.96069 5.46225 7.21742 5.88517 7.4576C5.88635 7.4583 5.88723 7.45943 5.88763 7.46077C5.88802 7.4621 5.88789 7.46354 5.88728 7.46476L5.38754 8.43476C5.38584 8.43799 5.38326 8.43984 5.37979 8.4403C5.3414 8.44596 5.30434 8.45 5.27115 8.42333C4.77521 8.02554 4.29483 7.60828 3.83001 7.17156C3.25858 6.63467 2.73605 6.07492 2.27681 5.44776C2.03894 5.12281 1.81723 4.75631 1.67749 4.37283C1.60713 4.17982 1.56531 3.97158 1.62162 3.7698C1.72485 3.39948 2.11815 3.3263 2.43081 3.32445C2.69545 3.32291 2.95983 3.33153 3.22395 3.35031C3.22772 3.35054 3.23037 3.34888 3.23192 3.34534C3.37752 3.00619 3.40086 2.59905 3.40219 2.23278C3.40329 1.91372 3.38648 1.59531 3.35174 1.27755C3.35158 1.27618 3.35094 1.27491 3.34997 1.274C3.34899 1.27308 3.34773 1.27258 3.34643 1.27259H0.912342C0.908432 1.27259 0.905593 1.27074 0.903823 1.26705L0.556428 0.535652C0.55451 0.531573 0.554879 0.527725 0.557534 0.524108L0.61075 0.450114C0.613331 0.446574 0.616724 0.444804 0.620928 0.444804L8.19834 0.444458C8.20188 0.444458 8.20446 0.446112 8.20608 0.449422L8.55414 1.18267C8.55583 1.18621 8.55554 1.18955 8.55325 1.19271L8.49782 1.26878C8.49598 1.27132 8.49355 1.27259 8.49052 1.27259H4.16236C4.16141 1.2726 4.16047 1.27281 4.1596 1.27323C4.15874 1.27364 4.15797 1.27424 4.15735 1.27499C4.15673 1.27573 4.15628 1.2766 4.15602 1.27754C4.15575 1.27849 4.15569 1.27947 4.15583 1.28044C4.22786 1.80417 4.24423 2.34302 4.22996 2.87148C4.22981 2.87641 4.23147 2.87721 4.23494 2.87391C4.56994 2.55219 4.98803 2.39243 5.44297 2.43848C6.46214 2.5418 7.14122 3.50614 7.62193 4.34085C7.85124 4.73911 8.06598 5.14575 8.26615 5.56077C8.26785 5.56416 8.26719 5.56689 8.26416 5.56897C8.14121 5.65539 8.01837 5.74205 7.89564 5.82893C7.87816 5.84124 7.85939 5.84474 7.83932 5.83943C7.83571 5.83843 7.83309 5.83616 7.83147 5.83262C7.58464 5.28419 7.34689 4.79913 7.04928 4.34674C6.72788 3.85822 6.3088 3.4213 5.7159 3.35192C5.2124 3.29294 4.61265 3.47994 4.45057 4.04476C4.32831 4.47084 4.54239 4.88386 4.99733 4.88721C5.46775 4.89079 5.77277 4.50016 5.94967 4.0944C5.95137 4.09063 5.95377 4.08998 5.95687 4.09244L6.58561 4.59689C6.58878 4.59935 6.58996 4.60262 6.58915 4.6067C6.49577 5.09626 6.08753 5.47962 5.64764 5.61376C5.125 5.77317 4.55025 5.46843 4.20451 5.06383C4.04726 4.87982 3.93707 4.673 3.87394 4.44336C3.87261 4.43859 3.87014 4.43774 3.86652 4.44082Z" fill="white"/>
</svg>
